<svg width="20" height="16" viewBox="0 0 20 16" fill="none" xmlns="http://www.w3.org/2000/svg">
<path d="M20 1.89418C19.2642 2.21575 18.4733 2.43232 17.6433 2.52994C18.4908 2.03035 19.1417 1.23872 19.4475 0.29532C18.655 0.758 17.7767 1.09434 16.8417 1.27564C16.0942 0.49057 15.0267 0 13.8467 0C11.1975 0 9.2508 2.43314 9.8492 4.95898C6.44 4.79081 3.41667 3.18294 1.3925 0.73913C0.3175 2.55455 0.835 4.92945 2.66167 6.1321C1.99 6.1107 1.35667 5.92945 0.80417 5.62674C0.75917 7.4979 2.12167 9.2486 4.095 9.6382C3.5175 9.7925 2.885 9.8285 2.24167 9.7071C2.76333 11.3117 4.27833 12.4791 6.075 12.5119C4.35 13.8433 2.17667 14.4381 0 14.1854C1.81583 15.3314 3.97333 16 6.29 16C13.9083 16 18.2125 9.6661 17.9525 3.98523C18.7542 3.41509 19.45 2.70386 20 1.89418Z" fill="white"/>
</svg>
